<svg width="48" height="48" viewBox="0 0 48 48" fill="none" xmlns="http://www.w3.org/2000/svg">
<path d="M32.667 8C35.4688 8 38.2279 9.14311 40.2101 11.1236C42.2022 13.1297 43.3243 15.8395 43.3337 18.6667" stroke="#343434" stroke-width="2" stroke-linecap="round"/>
<path d="M25.0696 13.7193L25.0703 13.72C25.8442 14.4756 26.2492 15.4756 26.3043 16.5949C26.3194 16.902 26.4749 17.185 26.726 17.3624C26.977 17.5398 27.2957 17.5919 27.5902 17.5037C30.4143 16.6573 32.3997 16.9868 33.6073 18.1538C34.7607 19.2693 34.938 20.8686 34.447 22.3984C34.2967 22.8664 34.5089 23.3742 34.9475 23.5962C37.2082 24.7406 38.7778 26.4196 38.7778 28.8267C38.7778 31.7843 36.8514 34.3487 33.9842 36.1302L33.9838 36.1305C31.1084 37.9192 27.184 39 22.8889 39C18.5941 39 14.6694 37.9175 11.7936 36.1302L11.7935 36.1302C8.9263 34.3486 7 31.786 7 28.8267C7 25.9977 8.36269 22.9616 10.4351 20.2728C12.6139 17.4731 15.3646 15.1702 18.5037 13.5176C21.1987 12.1225 23.6118 12.2931 25.0696 13.7193Z" stroke="#343434" stroke-width="2" stroke-linecap="round" stroke-linejoin="round"/>
</svg>
