<svg width="48" height="48" viewBox="0 0 48 48" fill="none" xmlns="http://www.w3.org/2000/svg">
<path d="M39.7805 14.6798C39.6005 15.3398 38.8005 16.9998 37.4405 18.5798C36.5405 35.9398 19.7005 41.5798 8.16048 35.7598C6.58048 33.6598 13.8605 34.5198 16.5205 30.4998C6.46048 25.3598 7.26048 11.6198 9.28048 12.1798C14.0205 18.5598 21.6605 19.1398 22.9005 18.5598C22.9005 17.0998 22.2805 13.9198 25.7205 11.2598C27.7005 9.83978 31.8405 8.57978 35.5805 12.6398C36.2205 13.0598 37.1405 13.2398 38.5205 12.9398C39.3405 12.5198 40.4205 12.7998 39.8605 14.2598L39.7805 14.6798Z" stroke="#343434" stroke-width="2" stroke-linecap="round" stroke-linejoin="round"/>
</svg>
